PathFileType	4	(X/Y/Z)	C:\Users\Tech_3\Documents\Nikita\PSYC9080\walk1.trc
DataRate	CameraRate	NumFrames	NumMarkers	Units	OrigDataRate	OrigDataStartFrame	OrigNumFrames
120.00	120.00	      10	16	mm	120.00	631	      2520
Frame#	Time	R_1M			R_5M			R_CALC			R_MAL			R_KNEE			R_GT			R_ASIS			R_PSIS			L_1M			L_5M			L_CALC			L_MAL			L_KNEE			L_GT			L_ASIS			L_PSIS			
		X1	Y1	Z1	X2	Y2	Z2	X3	Y3	Z3	X4	Y4	Z4	X5	Y5	Z5	X6	Y6	Z6	X7	Y7	Z7	X8	Y8	Z8	X9	Y9	Z9	X10	Y10	Z10	X11	Y11	Z11	X12	Y12	Z12	X13	Y13	Z13	X14	Y14	Z14	X15	Y15	Z15	X16	Y16	Z16	

631	5.250	293.75668	78.95840	653.12012	190.30833	63.81385	639.58673	240.61224	25.14536	462.19162	189.62910	113.78344	528.20227	180.90918	482.47961	478.68283	100.09846	837.56683	375.62720	208.95599	896.03961	437.65274	212.83763	954.47388	201.09863	289.50946	50.87814	55.86990	386.23248	52.22873	46.26192	333.59723	129.51584	-125.93665	387.31073	156.06946	-20.30009	410.55881	474.45334	242.21884	475.09839	799.62372	311.32327	401.44556	893.72870	406.33337	287.08136	954.83044	188.37326	
632	5.258	294.12918	75.76855	644.80994	190.17017	60.48594	631.56470	241.06871	25.72058	452.67612	189.06241	112.75495	521.40753	180.03557	482.81314	479.38428	99.02281	838.46167	378.93246	208.40048	896.15192	439.81796	211.37796	954.54211	202.93858	289.50607	51.18384	48.13698	386.22357	52.46173	39.01567	333.72226	138.74393	-128.70015	388.55322	160.34384	-22.60706	412.96509	473.48434	246.51073	474.27271	799.23535	313.02576	400.49881	893.83966	407.50192	285.40100	954.32654	189.83871	
633	5.267	294.66919	73.01330	636.40210	190.72598	58.01968	623.76208	240.42908	26.15547	443.81497	188.51633	112.02242	514.32013	178.88242	483.41013	479.97241	98.04002	839.99890	381.93146	207.87941	896.40027	442.01523	209.93016	954.93079	204.65753	289.48038	51.63003	40.79939	386.08194	52.94668	31.93056	335.03528	148.47624	-130.22739	389.80777	164.61005	-23.72564	415.43018	472.56061	251.37428	472.86270	799.02374	314.86176	399.72556	894.05750	408.70419	284.07928	953.97650	191.18730	
634	5.275	295.43857	70.94715	628.20038	190.85115	56.91376	615.44843	240.29457	26.14003	434.92004	187.86214	111.62231	506.81021	177.84586	484.08279	479.95578	96.76286	842.38593	384.21814	207.03574	897.24475	443.85120	208.68996	955.81482	206.23759	289.78339	52.29607	34.14357	386.32913	53.43331	25.73709	336.79547	158.62215	-130.42274	391.31830	168.62228	-23.88881	417.87250	471.91461	256.63770	471.42407	799.03033	316.41238	398.95599	894.38226	409.90204	283.07388	953.72552	192.38426	
635	5.283	296.09360	69.53686	618.55530	190.95311	56.14452	606.59821	239.64568	26.63603	425.45197	187.90607	111.15769	499.25229	177.05565	484.76096	479.37018	95.66904	844.81500	385.88144	206.23720	898.56616	445.45438	207.89372	957.10461	207.59322	289.98819	53.65934	27.67057	386.88895	54.01207	20.01426	337.68454	169.98308	-129.76659	392.84607	173.46681	-23.30462	420.52615	471.29312	262.30157	470.70514	799.13800	318.10455	397.62573	894.68988	410.85559	282.22116	953.90051	193.46852	
636	5.292	296.14334	68.39394	609.73431	190.89531	55.27327	597.79651	239.48817	26.76696	416.27856	187.28146	111.01202	491.13669	175.79250	485.50607	477.93451	94.76017	847.22174	386.86081	205.45241	900.05450	446.94843	207.50436	958.69855	208.68436	290.69678	55.36796	22.07664	387.17474	55.21593	14.57230	340.04300	181.05997	-127.41084	394.01407	178.27504	-22.05435	422.97043	470.97885	268.08206	469.61603	799.40808	319.74664	396.54959	895.49243	411.75378	281.57004	954.28284	194.37801	
637	5.300	296.18085	67.66199	600.87946	190.76613	54.63962	588.77490	239.27882	27.03276	407.04483	186.40213	111.08062	482.71323	174.51712	486.06906	475.92188	93.56189	849.65643	387.36292	204.15369	902.09839	447.84320	207.03543	960.28204	209.56427	290.98560	58.10204	16.91560	387.49588	56.77032	10.17549	342.96945	192.96992	-123.60703	396.12891	183.02783	-19.37555	426.00467	471.02435	274.16852	467.73608	800.03412	321.02267	394.77826	896.52563	412.70447	280.99002	954.85614	195.09000	
638	5.308	296.33578	67.14761	591.62286	190.51218	54.34241	579.53583	239.31316	27.05816	397.77725	186.36528	110.84605	474.55734	173.39949	486.37000	473.23560	91.87901	851.81390	387.31396	203.20293	903.97906	448.71213	206.63264	961.99353	210.15575	292.00043	61.44316	12.75522	388.32169	59.35510	6.45413	344.70374	205.44492	-118.77392	397.80777	188.12285	-16.39575	428.60605	471.32748	280.43494	466.64441	801.11719	322.60855	393.59766	897.14288	413.31030	280.52963	955.46527	195.60690	
639	5.317	297.07278	66.78069	582.73517	190.25015	54.10912	570.48694	238.64333	27.27222	388.55750	185.74971	110.73838	465.93173	172.38602	486.52234	469.89816	91.29980	853.67603	387.33688	201.97827	905.97162	449.17599	205.97589	963.60364	210.46915	293.00555	64.99333	9.20576	388.67892	61.99741	2.90196	346.50366	217.46213	-112.25779	399.35114	193.63210	-12.67838	430.81509	472.14383	287.21323	465.63995	802.01276	323.68094	392.07520	898.51965	413.87814	279.90622	956.24750	195.95679	
640	5.325	296.84326	66.03937	573.06769	190.00423	53.69567	561.28937	238.80794	27.45134	379.33505	185.42168	110.66383	457.24539	171.28221	486.44034	465.82843	89.95238	855.22736	387.11844	200.51675	907.81097	449.36844	205.62103	965.04785	210.80136	294.10559	68.92265	7.24173	389.45193	64.97908	-0.15139	348.67792	229.24345	-104.47913	400.73752	198.69585	-8.15799	433.20718	473.24219	293.70187	464.35699	803.38788	324.45187	390.96634	899.88190	414.33463	279.25607	957.41248	196.20821	
